<svg xmlns="http://www.w3.org/2000/svg" viewBox="0 0 1621 1621"
     width="1621" height="1621" preserveAspectRatio="xMidYMid meet" fill="none">
  <defs>
    <radialGradient id="head-purple-glow" gradientUnits="userSpaceOnUse" cx="810.0" cy="810.0" r="810.5">
      <stop offset="0.0000" stop-color="#9C72FF" stop-opacity="1.0000"/>
      <stop offset="0.0250" stop-color="#9C73FF" stop-opacity="1.0000"/>
      <stop offset="0.4750" stop-color="#9D74FF" stop-opacity="0.9922"/>
      <stop offset="0.5000" stop-color="#9F78FF" stop-opacity="0.9843"/>
      <stop offset="0.5250" stop-color="#A47CFF" stop-opacity="0.9451"/>
      <stop offset="0.5500" stop-color="#A780FF" stop-opacity="0.9216"/>
      <stop offset="0.5750" stop-color="#AA84FF" stop-opacity="0.8902"/>
      <stop offset="0.6000" stop-color="#AD88FF" stop-opacity="0.8588"/>
      <stop offset="0.6250" stop-color="#AE8AFF" stop-opacity="0.8431"/>
      <stop offset="0.6500" stop-color="#B291FF" stop-opacity="0.7882"/>
      <stop offset="0.6750" stop-color="#B595FF" stop-opacity="0.7529"/>
      <stop offset="0.7000" stop-color="#B899FF" stop-opacity="0.7098"/>
      <stop offset="0.7250" stop-color="#BEA5FF" stop-opacity="0.6706"/>
      <stop offset="0.7500" stop-color="#C0AAFF" stop-opacity="0.6471"/>
      <stop offset="0.7750" stop-color="#CABDFF" stop-opacity="0.5843"/>
      <stop offset="0.8000" stop-color="#CFC8FF" stop-opacity="0.5333"/>
      <stop offset="0.8250" stop-color="#D3CDFF" stop-opacity="0.4863"/>
      <stop offset="0.8500" stop-color="#D6D0FF" stop-opacity="0.3176"/>
      <stop offset="0.8750" stop-color="#D6D0FF" stop-opacity="0.3020"/>
      <stop offset="0.9000" stop-color="#D4D4FF" stop-opacity="0.2784"/>
      <stop offset="0.9250" stop-color="#D4D4FF" stop-opacity="0.2588"/>
      <stop offset="0.9500" stop-color="#D1D9FF" stop-opacity="0.2392"/>
      <stop offset="0.9750" stop-color="#D1DBFF" stop-opacity="0.2196"/>
      <stop offset="1.0000" stop-color="#D1DDFF" stop-opacity="0.0863"/>
    </radialGradient>
  </defs>
  <circle cx="810.0" cy="810.0" r="810.5" fill="url(#head-purple-glow)"/>
  <g fill="#A386F7">
    <circle cx="1318.8" cy="808.3" r="13.8"/>
    <circle cx="1312.8" cy="880.9" r="13.8"/>
    <circle cx="1296.6" cy="951.7" r="13.8"/>
    <circle cx="1270.6" cy="1019.4" r="13.8"/>
    <circle cx="1235.2" cy="1082.7" r="13.8"/>
    <circle cx="1191.1" cy="1140.5" r="13.8"/>
    <circle cx="1139.3" cy="1191.3" r="13.8"/>
    <circle cx="1080.7" cy="1234.3" r="13.8"/>
    <circle cx="1016.4" cy="1268.3" r="13.8"/>
    <circle cx="948.3" cy="1293.1" r="13.8"/>
    <circle cx="877.1" cy="1307.7" r="13.8"/>
    <circle cx="804.6" cy="1312.3" r="13.8"/>
    <circle cx="732.1" cy="1306.3" r="13.8"/>
    <circle cx="661.3" cy="1290.2" r="13.8"/>
    <circle cx="593.7" cy="1264.2" r="13.8"/>
    <circle cx="530.2" cy="1228.6" r="13.8"/>
    <circle cx="472.7" cy="1184.7" r="13.8"/>
    <circle cx="421.6" cy="1133.0" r="13.8"/>
    <circle cx="378.6" cy="1074.3" r="13.8"/>
    <circle cx="344.6" cy="1010.1" r="13.8"/>
    <circle cx="319.7" cy="942.0" r="13.8"/>
    <circle cx="305.1" cy="870.8" r="13.8"/>
    <circle cx="300.4" cy="798.2" r="13.8"/>
    <circle cx="306.4" cy="725.8" r="13.8"/>
    <circle cx="322.5" cy="654.8" r="13.8"/>
    <circle cx="348.5" cy="587.1" r="13.8"/>
    <circle cx="384.1" cy="523.7" r="13.8"/>
    <circle cx="428.0" cy="466.0" r="13.8"/>
    <circle cx="480.1" cy="415.0" r="13.8"/>
    <circle cx="538.5" cy="372.0" r="13.8"/>
    <circle cx="602.8" cy="337.9" r="13.8"/>
    <circle cx="670.9" cy="313.2" r="13.8"/>
    <circle cx="742.2" cy="298.5" r="13.8"/>
    <circle cx="814.8" cy="294.0" r="13.8"/>
    <circle cx="887.2" cy="299.9" r="13.8"/>
    <circle cx="958.1" cy="316.1" r="13.8"/>
    <circle cx="1025.9" cy="342.1" r="13.8"/>
    <circle cx="1089.3" cy="377.6" r="13.8"/>
    <circle cx="1146.9" cy="421.6" r="13.8"/>
    <circle cx="1197.9" cy="473.7" r="13.8"/>
    <circle cx="1240.8" cy="532.1" r="13.8"/>
    <circle cx="1274.9" cy="596.5" r="13.8"/>
    <circle cx="1299.7" cy="664.6" r="13.8"/>
    <circle cx="1314.4" cy="735.9" r="13.8"/>
  </g>
  <g fill="#AB98F1">
    <circle cx="1423.4" cy="809.4" r="16.8"/>
    <circle cx="1416.4" cy="896.7" r="16.8"/>
    <circle cx="1396.9" cy="982.0" r="16.8"/>
    <circle cx="1365.5" cy="1063.7" r="16.8"/>
    <circle cx="1322.8" cy="1140.3" r="16.8"/>
    <circle cx="1269.5" cy="1209.9" r="16.8"/>
    <circle cx="1207.0" cy="1271.2" r="16.8"/>
    <circle cx="1136.3" cy="1322.8" r="16.8"/>
    <circle cx="1059.2" cy="1364.1" r="16.8"/>
    <circle cx="976.8" cy="1393.8" r="16.8"/>
    <circle cx="890.9" cy="1411.5" r="16.8"/>
    <circle cx="803.6" cy="1416.9" r="16.8"/>
    <circle cx="716.3" cy="1409.9" r="16.8"/>
    <circle cx="630.9" cy="1390.4" r="16.8"/>
    <circle cx="549.3" cy="1359.1" r="16.8"/>
    <circle cx="472.7" cy="1316.4" r="16.8"/>
    <circle cx="403.1" cy="1263.1" r="16.8"/>
    <circle cx="341.8" cy="1200.6" r="16.8"/>
    <circle cx="290.2" cy="1130.0" r="16.8"/>
    <circle cx="248.9" cy="1052.8" r="16.8"/>
    <circle cx="219.2" cy="970.4" r="16.8"/>
    <circle cx="201.3" cy="884.5" r="16.8"/>
    <circle cx="196.0" cy="797.2" r="16.8"/>
    <circle cx="203.0" cy="709.9" r="16.8"/>
    <circle cx="222.4" cy="624.6" r="16.8"/>
    <circle cx="254.0" cy="542.8" r="16.8"/>
    <circle cx="296.7" cy="466.2" r="16.8"/>
    <circle cx="349.7" cy="396.7" r="16.8"/>
    <circle cx="412.3" cy="335.3" r="16.8"/>
    <circle cx="482.9" cy="283.7" r="16.8"/>
    <circle cx="560.1" cy="242.4" r="16.8"/>
    <circle cx="642.5" cy="212.6" r="16.8"/>
    <circle cx="728.4" cy="194.9" r="16.8"/>
    <circle cx="815.8" cy="189.5" r="16.8"/>
    <circle cx="903.1" cy="196.5" r="16.8"/>
    <circle cx="988.4" cy="216.0" r="16.8"/>
    <circle cx="1070.2" cy="247.5" r="16.8"/>
    <circle cx="1146.8" cy="290.3" r="16.8"/>
    <circle cx="1216.4" cy="343.4" r="16.8"/>
    <circle cx="1277.6" cy="405.9" r="16.8"/>
    <circle cx="1329.3" cy="476.6" r="16.8"/>
    <circle cx="1370.5" cy="553.8" r="16.8"/>
    <circle cx="1400.3" cy="636.1" r="16.8"/>
    <circle cx="1418.1" cy="722.0" r="16.8"/>
  </g>
  <g fill="#A48EE9">
    <circle cx="1527.8" cy="810.4" r="20.0"/>
    <circle cx="1519.5" cy="912.6" r="20.0"/>
    <circle cx="1496.7" cy="1012.4" r="20.0"/>
    <circle cx="1459.9" cy="1108.1" r="20.0"/>
    <circle cx="1410.0" cy="1197.5" r="20.0"/>
    <circle cx="1347.7" cy="1279.0" r="20.0"/>
    <circle cx="1274.7" cy="1350.5" r="20.0"/>
    <circle cx="1191.9" cy="1411.2" r="20.0"/>
    <circle cx="1101.5" cy="1459.5" r="20.0"/>
    <circle cx="1005.2" cy="1494.4" r="20.0"/>
    <circle cx="904.9" cy="1515.0" r="20.0"/>
    <circle cx="802.6" cy="1521.4" r="20.0"/>
    <circle cx="700.5" cy="1513.2" r="20.0"/>
    <circle cx="600.6" cy="1490.3" r="20.0"/>
    <circle cx="504.8" cy="1453.6" r="20.0"/>
    <circle cx="415.5" cy="1403.6" r="20.0"/>
    <circle cx="334.0" cy="1341.3" r="20.0"/>
    <circle cx="262.4" cy="1268.2" r="20.0"/>
    <circle cx="201.7" cy="1185.5" r="20.0"/>
    <circle cx="153.4" cy="1095.1" r="20.0"/>
    <circle cx="118.6" cy="998.8" r="20.0"/>
    <circle cx="98.0" cy="898.5" r="20.0"/>
    <circle cx="91.5" cy="796.2" r="20.0"/>
    <circle cx="99.8" cy="694.0" r="20.0"/>
    <circle cx="122.7" cy="594.2" r="20.0"/>
    <circle cx="159.5" cy="498.5" r="20.0"/>
    <circle cx="209.4" cy="409.1" r="20.0"/>
    <circle cx="271.7" cy="327.6" r="20.0"/>
    <circle cx="344.7" cy="256.0" r="20.0"/>
    <circle cx="427.5" cy="195.3" r="20.0"/>
    <circle cx="517.8" cy="147.0" r="20.0"/>
    <circle cx="614.2" cy="112.2" r="20.0"/>
    <circle cx="714.5" cy="91.6" r="20.0"/>
    <circle cx="816.8" cy="85.2" r="20.0"/>
    <circle cx="918.9" cy="93.4" r="20.0"/>
    <circle cx="1018.8" cy="116.3" r="20.0"/>
    <circle cx="1114.5" cy="153.0" r="20.0"/>
    <circle cx="1203.9" cy="203.0" r="20.0"/>
    <circle cx="1285.4" cy="265.3" r="20.0"/>
    <circle cx="1357.0" cy="338.4" r="20.0"/>
    <circle cx="1417.6" cy="421.1" r="20.0"/>
    <circle cx="1465.9" cy="511.4" r="20.0"/>
    <circle cx="1500.8" cy="607.8" r="20.0"/>
    <circle cx="1521.4" cy="708.1" r="20.0"/>
  </g>
</svg>
