<svg xmlns="http://www.w3.org/2000/svg" viewBox="0 50.49 101 346.51"
     width="101" height="346.51" preserveAspectRatio="xMidYMid meet" fill="none">
  <defs>
    <linearGradient id="stem-green-fade" gradientUnits="userSpaceOnUse" x1="96.34" y1="50.49" x2="2.1" y2="396">
      <stop offset="0.000" stop-color="#4FB0A6" stop-opacity="0.865"/>
      <stop offset="0.083" stop-color="#4EAEA7" stop-opacity="1.000"/>
      <stop offset="0.167" stop-color="#4EAEA7" stop-opacity="1.000"/>
      <stop offset="0.250" stop-color="#4EAFA8" stop-opacity="1.000"/>
      <stop offset="0.333" stop-color="#4EAFA8" stop-opacity="1.000"/>
      <stop offset="0.417" stop-color="#4DAEA7" stop-opacity="1.000"/>
      <stop offset="0.500" stop-color="#4EB9AA" stop-opacity="0.900"/>
      <stop offset="0.583" stop-color="#51CAB0" stop-opacity="0.722"/>
      <stop offset="0.667" stop-color="#53DBB3" stop-opacity="0.554"/>
      <stop offset="0.750" stop-color="#52EDB7" stop-opacity="0.393"/>
      <stop offset="0.833" stop-color="#52FFBE" stop-opacity="0.239"/>
      <stop offset="0.917" stop-color="#55FFBE" stop-opacity="0.201"/>
      <stop offset="1.000" stop-color="#52FFC2" stop-opacity="0.163"/>
    </linearGradient>
  </defs>
  <path d="M96.08 0.00 C96.24 3.30 96.93 13.20 97.08 19.80 C97.22 26.40 97.19 33.00 96.94 39.60 C96.69 46.20 96.24 52.80 95.57 59.40 C94.90 66.00 94.04 72.60 92.92 79.20 C91.80 85.80 90.47 92.40 88.84 99.00 C87.21 105.60 85.33 112.20 83.13 118.80 C80.92 125.40 78.42 132.00 75.60 138.60 C72.79 145.20 69.63 151.80 66.25 158.40 C62.88 165.00 59.12 171.60 55.35 178.20 C51.59 184.80 47.49 191.40 43.65 198.00 C39.81 204.60 35.82 211.20 32.32 217.80 C28.82 224.40 25.44 231.00 22.63 237.60 C19.82 244.20 17.47 250.80 15.44 257.40 C13.41 264.00 11.86 270.60 10.45 277.20 C9.03 283.80 7.93 290.40 6.94 297.00 C5.95 303.60 5.18 310.20 4.52 316.80 C3.86 323.40 3.37 330.00 2.97 336.60 C2.58 343.20 2.30 349.80 2.13 356.40 C1.96 363.00 1.97 369.60 1.97 376.20 C1.96 382.80 2.08 392.70 2.10 396.00" stroke="url(#stem-green-fade)" stroke-width="4.93" stroke-linecap="round" fill="none"/>
</svg>
